Coordinates
version=1
nRows=24
nColumns=24
inDegrees=yes

Units are S.I. units (second, meters, Newtons, ...)
Angles are in degrees.

endheader
time	pelvis_tilt	pelvis_list	pelvis_rotation	pelvis_tx	pelvis_ty	pelvis_tz	hip_flexion_r	hip_adduction_r	hip_rotation_r	knee_angle_r	ankle_angle_r	subtalar_angle_r	mtp_angle_r	hip_flexion_l	hip_adduction_l	hip_rotation_l	knee_angle_l	ankle_angle_l	subtalar_angle_l	mtp_angle_l	lumbar_extension	lumbar_bending	lumbar_rotation
      0.85816667	     -1.78663688	     -3.45847783	     -0.18261582	     -0.42015704	      1.00402291	      0.34086036	     12.28501518	      6.69334897	      0.22056605	    -18.05883372	      8.88696601	    -10.12368148	      3.09232821	     15.77033167	     -4.39392933	     -2.97268387	    -70.61472317	     -6.89189520	    -10.05185194	      4.28995960	     -9.99626009	     12.07010349	     -1.29483358
      0.86233333	     -1.71324463	     -3.31215110	     -0.21770010	     -0.41523835	      1.00506943	      0.34126098	     11.68120085	      6.57341475	      0.33010786	    -17.62447698	      8.92402117	    -10.12280171	      3.09569462	     16.24975390	     -4.30876726	     -3.10634238	    -70.47694045	     -6.38031785	    -10.30691285	      4.23783974	    -10.13589641	     11.83648716	     -1.00829800
      0.86650000	     -1.62825339	     -3.17333098	     -0.25920866	     -0.41031650	      1.00609035	      0.34165890	     11.06146709	      6.46020576	      0.43860215	    -17.18053495	      8.95994377	    -10.11716669	      3.09871780	     16.70514191	     -4.23316257	     -3.24583430	    -70.29195949	     -5.87413989	    -10.53883740	      4.18292007	    -10.28512769	     11.61495455	     -0.74264997
      0.87066667	     -1.54730523	     -3.00104202	     -0.30810123	     -0.40541288	      1.00708408	      0.34204943	     10.46236885	      6.30812567	      0.54264821	    -16.77050970	      8.99058719	    -10.08623101	      3.10013630	     17.14937501	     -4.11611067	     -3.39482671	    -70.04343839	     -5.37334684	    -10.76494951	      4.14114869	    -10.43976460	     11.35948918	     -0.53746827
      0.87483333	     -1.46953861	     -2.84646868	     -0.36495481	     -0.40046870	      1.00805132	      0.34244951	      9.84622357	      6.17652181	      0.66773912	    -16.31936708	      9.04759508	    -10.08434512	      3.10255093	     17.57993423	     -4.02273286	     -3.54902318	    -69.73906715	     -4.91524011	    -10.95619833	      4.04638069	    -10.57127715	     11.11383829	     -0.18310220
      0.87900000	     -1.39226331	     -2.66102039	     -0.41764383	     -0.39556105	      1.00897475	      0.34283324	      9.25322947	      6.00592850	      0.76656299	    -15.91160989	      9.08768854	    -10.05125236	      3.10288278	     18.00313524	     -3.89010096	     -3.70185292	    -69.38574496	     -4.45298492	    -11.12089705	      3.99335937	    -10.71618002	     10.83930542	     -0.00140656
      0.88316667	     -1.29546118	     -2.49768432	     -0.47011771	     -0.39063731	      1.00989341	      0.34321113	      8.62031269	      5.85938783	      0.88269016	    -15.46287002	      9.14133412	    -10.02952646	      3.10223395	     18.39135233	     -3.78078776	     -3.84832919	    -68.98370595	     -3.99952974	    -11.25800325	      3.92633809	    -10.87032585	     10.58609480	      0.26624774
      0.88733333	     -1.20783852	     -2.33752164	     -0.53110514	     -0.38569721	      1.01075730	      0.34358216	      8.00284645	      5.71287928	      0.98855571	    -15.02489631	      9.18293855	    -10.01770260	      3.09969287	     18.77322010	     -3.67691296	     -4.00487086	    -68.53157881	     -3.54248789	    -11.38866821	      3.81694246	    -11.00931278	     10.34621398	      0.55985359
      0.89150000	     -1.17533171	     -2.14312517	     -0.58804797	     -0.38080238	      1.01150146	      0.34392599	      7.46860804	      5.52480620	      1.07921704	    -14.63193129	      9.22114881	     -9.97827576	      3.09769809	     19.20822549	     -3.52213503	     -4.14354920	    -68.03059384	     -3.09887513	    -11.47927863	      3.76849226	    -11.08907701	     10.07135320	      0.69790361
      0.89566667	     -1.05243920	     -1.99539663	     -0.64471850	     -0.37586739	      1.01233624	      0.34428622	      6.80804426	      5.38761571	      1.18358559	    -14.17919144	      9.27259304	     -9.96487281	      3.09202449	     19.52697173	     -3.42987200	     -4.29214244	    -67.48251722	     -2.65269337	    -11.54959736	      3.65646573	    -11.27076482	      9.83120585	      1.00880069
      0.89983333	     -0.99415145	     -1.80750544	     -0.69730227	     -0.37095866	      1.01303062	      0.34461081	      6.24184926	      5.20241898	      1.26729971	    -13.77655340	      9.34128235	     -9.94117469	      3.08743666	     19.90467489	     -3.27952726	     -4.42373769	    -66.88073012	     -2.23384557	    -11.57184998	      3.57683849	    -11.36988288	      9.55296484	      1.19256060
      0.90400000	     -0.91666770	     -1.63176504	     -0.74968441	     -0.36605301	      1.01371147	      0.34492119	      5.65377166	      5.02689465	      1.34730439	    -13.36753326	      9.39647453	     -9.90270044	      3.08192654	     20.24767239	     -3.13869948	     -4.54883901	    -66.23267637	     -1.80775035	    -11.59136927	      3.49523480	    -11.49817205	      9.29673850	      1.39431580
      0.90816667	     -0.86851474	     -1.45987978	     -0.80231004	     -0.36115084	      1.01430192	      0.34521581	      5.10302456	      4.85353681	      1.42597727	    -12.96885869	      9.45601945	     -9.86618721	      3.07501045	     20.60982637	     -2.99744731	     -4.66464611	    -65.53984415	     -1.38760289	    -11.58891028	      3.40609772	    -11.59184735	      9.04475478	      1.59723013
      0.91233333	     -0.84333293	     -1.28855432	     -0.85445874	     -0.35626523	      1.01480528	      0.34548505	      4.59155472	      4.67675372	      1.48570007	    -12.59589878	      9.48195529	     -9.81842508	      3.07014699	     20.98519325	     -2.84802015	     -4.76660466	    -64.80334345	     -0.96618271	    -11.58134436	      3.35940900	    -11.65158224	      8.80867268	      1.71259688
      0.91650000	     -0.76133371	     -1.15261761	     -0.89317876	     -0.35136118	      1.01534091	      0.34575884	      3.99271538	      4.53986582	      1.56693672	    -12.17148397	      9.56542699	     -9.80452615	      3.06100261	     21.28697870	     -2.73981303	     -4.85494232	    -64.02700164	     -0.56902023	    -11.50708694	      3.26512222	    -11.79047692	      8.59010668	      1.95460551
      0.92066667	     -0.75317016	     -0.98805858	     -0.93772220	     -0.34647510	      1.01573057	      0.34599946	      3.50410527	      4.36653867	      1.61485337	    -11.80523323	      9.59625235	     -9.76157399	      3.05552730	     21.65254894	     -2.58786822	     -4.93442851	    -63.19633437	     -0.18341149	    -11.46967737	      3.22208921	    -11.82619407	      8.35568026	      2.04911672
      0.92483333	     -0.66769092	     -0.84932291	     -0.97308403	     -0.34157276	      1.01616452	      0.34622808	      2.91378889	      4.22026509	      1.67545245	    -11.40594154	      9.69392077	     -9.72903323	      3.04519506	     21.91855693	     -2.46075280	     -4.99774755	    -62.32231088	      0.17922635	    -11.36955588	      3.12604384	    -11.97020354	      8.14935081	      2.27365155
      0.92900000	     -0.62667252	     -0.70243772	     -1.01047989	     -0.33667154	      1.01650915	      0.34643726	      2.38256706	      4.06180897	      1.72258740	    -11.02624254	      9.75836042	     -9.68799871	      3.03386643	     22.21514858	     -2.31706893	     -5.05225793	    -61.39496841	      0.51894490	    -11.28636670	      3.03045165	    -12.05200599	      7.93469265	      2.42752346
      0.93316667	     -0.59172455	     -0.57874036	     -1.04049191	     -0.33177783	      1.01677615	      0.34663173	      1.85815760	      3.92825648	      1.76928997	    -10.64641210	      9.81837394	     -9.65095181	      3.02090648	     22.50921866	     -2.19212289	     -5.08410518	    -60.43513266	      0.84965646	    -11.18358004	      2.92964800	    -12.13327078	      7.74983262	      2.57268146
      0.93733333	     -0.59589918	     -0.44192027	     -1.07261001	     -0.32687273	      1.01695169	      0.34679516	      1.39083490	      3.77631355	      1.79257695	    -10.29882853	      9.86710523	     -9.60182541	      3.01333546	     22.82460267	     -2.04423683	     -5.10560830	    -59.41762447	      1.13604598	    -11.09209529	      2.87988939	    -12.14619180	      7.56414355	      2.65723231
      0.94150000	     -0.52083158	     -0.32546196	     -1.09581656	     -0.32194259	      1.01719607	      0.34695960	      0.81364413	      3.64531921	      1.82200076	     -9.90410690	      9.96561745	     -9.54365428	      3.00017095	     23.03467889	     -1.91658032	     -5.11784401	    -58.35224995	      1.39579428	    -10.98892322	      2.78693354	    -12.27695542	      7.38113477	      2.82282428
      0.94566667	     -0.47527194	     -0.21243691	     -1.11822896	     -0.31700691	      1.01734975	      0.34710381	      0.27769855	      3.51624135	      1.83825232	     -9.52900265	     10.03764306	     -9.49413372	      2.98635041	     23.26001378	     -1.78595992	     -5.11605068	    -57.24087923	      1.62143274	    -10.89083538	      2.70187417	    -12.35764813	      7.21295369	      2.94464596
      0.94983333	     -0.49244148	     -0.10369604	     -1.14265270	     -0.31207832	      1.01736407	      0.34722303	     -0.17668073	      3.39013616	      1.85164140	     -9.18196593	     10.08997744	     -9.43015901	      2.97764604	     23.53851739	     -1.65058266	     -5.09223810	    -56.08663196	      1.81736942	    -10.79382332	      2.65297508	    -12.36263453	      7.05833323	      3.02694545
      0.95400000	     -0.40916066	     -0.00941702	     -1.15823627	     -0.30711684	      1.01746934	      0.34734640	     -0.76326831	      3.27781611	      1.85318734	     -8.79018773	     10.19775974	     -9.35296952	      2.96247804	     23.68657100	     -1.53100996	     -5.06756540	    -54.88267246	      1.96324860	    -10.72529157	      2.56588837	    -12.49779619	      6.90755875	      3.17328815
